<svg height="512pt" viewBox="0 0 512 512" width="512pt" xmlns="http://www.w3.org/2000/svg"><path d="m0 459.667969v52.324219h70.773438l8.433593-166.015626c-46.195312 17.113282-79.207031 61.617188-79.207031 113.691407zm0 0"/><path d="m512 459.667969c0-52.050781-32.988281-96.539063-79.152344-113.667969l8.429688 165.992188h70.722656zm0 0"/><path d="m390.808594 338.476562h-28.609375l2.738281 108.546876h-214.222656l-.695313-108.546876h-28.828125c-3.902344 0-7.761718.191407-11.570312.554688l-8.789063 172.960938h310.390625l-8.785156-172.953126c-3.828125-.367187-7.707031-.5625-11.628906-.5625zm-253.183594 155.207032c-8.402344 0-14.625-6.871094-14.992188-14.992188-.363281-8.097656 7.152344-14.992187 14.992188-14.992187 8.40625 0 14.628906 6.867187 14.992188 14.992187.363281 8.09375-7.148438 14.992188-14.992188 14.992188zm238.875 0c-8.402344 0-14.625-6.871094-14.992188-14.992188-.363281-8.097656 7.152344-14.992187 14.992188-14.992187 8.40625 0 14.628906 6.867187 14.992188 14.992187.363281 8.09375-7.148438 14.992188-14.992188 14.992188zm0 0"/><path d="m254.457031 374.4375h-.574219c-26.0625 0-51.195312-6.105469-73.765624-17.625l.371093 60.226562h153.625l-1.535156-63.15625c-23.179687 13-49.8125 20.457032-78.121094 20.554688zm0 0"/><path d="m253.882812 345.4375h.476563c72.777344-.25 132.089844-59.753906 133.058594-133.019531h-267.078125c.136718 35.5625 14.070312 68.953125 39.273437 94.070312 25.21875 25.128907 58.679688 38.949219 94.269531 38.949219zm0 0"/><path d="m120.332031 182.433594h267.109375v-.546875h78v-29.984375h-59.367187c-.011719-4.738282-.242188-9.425782-.679688-14.058594-.296875-3.167969-.6875-6.3125-1.175781-9.421875h-300.660156c-.496094 3.140625-.890625 6.3125-1.1875 9.515625-.429688 4.601562-.660156 9.257812-.671875 13.964844h-56.007813v29.984375h74.640625zm0 0"/><path d="m253.886719 0c-65.003907 0-120.609375 40.96875-142.375 98.4375h284.75c-21.769531-57.46875-77.375-98.4375-142.375-98.4375zm0 0"/></svg>