<?xml version="1.0" encoding="iso-8859-1"?>
<!-- Generator: Adobe Illustrator 19.0.0, SVG Export Plug-In . SVG Version: 6.00 Build 0)  -->
<svg version="1.1" id="Capa_1" xmlns="http://www.w3.org/2000/svg" xmlns:xlink="http://www.w3.org/1999/xlink" x="0px" y="0px"
	 viewBox="0 0 512 512" style="enable-background:new 0 0 512 512;" xml:space="preserve">
<g>
	<g>
		<rect x="61" y="452" width="390" height="60"/>
	</g>
</g>
<g>
	<g>
		<path d="M61,210v212h390V210H61z M271,358.237V391h-30v-32.763c-17.422-6.213-30-22.707-30-42.237c0-24.814,20.186-45,45-45
			c24.814,0,45,20.186,45,45C301,335.53,288.422,352.024,271,358.237z"/>
	</g>
</g>
<g>
	<g>
		<path d="M256,301c-8.276,0-15,6.724-15,15s6.724,15,15,15s15-6.724,15-15S264.276,301,256,301z"/>
	</g>
</g>
<g>
	<g>
		<path d="M256,0C165.019,0,91,74.019,91,165v15h60v-15c0-57.891,47.109-105,105-105s105,47.109,105,105v15h60v-15
			C421,74.019,346.981,0,256,0z"/>
	</g>
</g>
<g>
</g>
<g>
</g>
<g>
</g>
<g>
</g>
<g>
</g>
<g>
</g>
<g>
</g>
<g>
</g>
<g>
</g>
<g>
</g>
<g>
</g>
<g>
</g>
<g>
</g>
<g>
</g>
<g>
</g>
</svg>
