<svg height="512pt" viewBox="0 0 512 512" width="512pt" xmlns="http://www.w3.org/2000/svg"><path d="m512 256c0 141.386719-114.613281 256-256 256s-256-114.613281-256-256 114.613281-256 256-256 256 114.613281 256 256zm0 0" fill="#ffd460"/><path d="m503.839844 320.359375-182.144532-182.140625-166.957031 41.738281-41.738281 187.824219 144.203125 144.203125c118.625-.546875 218.1875-81.765625 246.636719-191.625zm0 0" fill="#ffbe11"/><path d="m370.390625 232.128906h-111.199219v41.738282h111.199219v41.742187l62.609375-62.609375-62.609375-62.609375zm0 0" fill="#3897ff"/><path d="m154.738281 179.957031h118.261719l13.914062-20.871093-13.914062-20.867188h-160v229.5625h160l13.914062-20.867188-13.914062-20.871093h-118.261719zm0 0" fill="#446080"/><g fill="#324860"><path d="m273 326.042969h48.695312v41.738281h-48.695312zm0 0"/><path d="m273 138.21875h48.695312v41.738281h-48.695312zm0 0"/></g></svg>